# xmcd
#
# Track frame offsets: 
#        150
#        10217
#        19112
#        30145
#        39147
#        50697
#        60725
#        72212
#        82397
#        93790
#        103395
#        120122
#        132060
#        144527
#        156190
#        165637
#        177700
#        187022
#        198112
#        209930
#        219875
#        231522
#        241080
#        251887
#
# Disc length: 3521 seconds
#
# Revision: 1
# Processed by: cddbd v1.5.2PL0 Copyright (c) Steve Scherf et al.
# Submitted via: ExactAudioCopyFreeDBPlugin 1.0
#
DISCID=520dbf18
DTITLE=The Mar-Keys - Last Night! and Do the Pop-Eye
DYEAR=2002
DGENRE=Soul
TTITLE0=Morning After
TTITLE1=Diana
TTITLE2=Alright, Okay, You Win
TTITLE3=Sticks and Stones
TTITLE4=Misty
TTITLE5=Night Before
TTITLE6=About Noon
TTITLE7=One Degree North
TTITLE8=Sack o' Woe
TTITLE9=Hold It!
TTITLE10=Ebb Tide
TTITLE11=Last Night
TTITLE12=Pop-Eye Stroll
TTITLE13=Wimp-Burger
TTITLE14=Straight from the Can
TTITLE15='Cause I Love You
TTITLE16=Squint-Eye
TTITLE17=Pop-Eye Rider
TTITLE18=It's Gonna Work Out Fine
TTITLE19=Sit Still
TTITLE20=Too Pooped to Pop-Eye
TTITLE21=Sweet-P Crawl
TTITLE22=Muscles A-Comin' Home
TTITLE23=Sailor Man Waltz
EXTD=
EXTT0=
EXTT1=
EXTT2=
EXTT3=
EXTT4=
EXTT5=
EXTT6=
EXTT7=
EXTT8=
EXTT9=
EXTT10=
EXTT11=
EXTT12=
EXTT13=
EXTT14=
EXTT15=
EXTT16=
EXTT17=
EXTT18=
EXTT19=
EXTT20=
EXTT21=
EXTT22=
EXTT23=
PLAYORDER=
